<?xml version="1.0" encoding="iso-8859-1"?>
<!-- Generator: Adobe Illustrator 19.0.0, SVG Export Plug-In . SVG Version: 6.00 Build 0)  -->
<svg version="1.1" id="Layer_1" xmlns="http://www.w3.org/2000/svg" xmlns:xlink="http://www.w3.org/1999/xlink" x="0px" y="0px"
	 viewBox="0 0 512.003 512.003" style="enable-background:new 0 0 512.003 512.003;" xml:space="preserve">
<polygon style="fill:#A0BF7C;" points="213.284,470.743 161.743,483.577 134.359,438.052 81.828,430.175 73.952,377.644 
	28.435,350.261 41.261,298.711 9.687,256.002 41.261,213.292 28.435,161.742 73.952,134.359 81.828,81.828 134.359,73.951 
	161.743,28.426 213.284,41.26 256.002,9.687 298.711,41.26 350.261,28.426 377.645,73.951 430.176,81.828 438.052,134.359 
	483.569,161.742 470.743,213.292 502.317,256.002 470.743,298.711 483.569,350.261 438.052,377.644 430.176,430.175 
	377.645,438.052 350.261,483.577 298.711,470.743 256.002,502.316 "/>
<path style="fill:#FF877F;" d="M256.002,422.402c-91.75,0-166.4-74.65-166.4-166.4s74.65-166.4,166.4-166.4s166.4,74.65,166.4,166.4
	S347.753,422.402,256.002,422.402z"/>
<g>
	<path style="fill:#FEDEA1;" d="M318.389,345.354c-10.931,0-20.369-4.002-28.023-11.878c-7.475-7.458-11.332-16.845-11.332-27.75
		c0-10.871,3.721-20.215,11.042-27.767c7.748-7.748,17.229-11.605,28.314-11.605c10.897,0,20.309,3.874,27.947,11.529
		c7.535,7.305,11.418,16.725,11.418,27.853c0,10.871-3.874,20.267-11.511,27.913C338.733,341.369,329.321,345.354,318.389,345.354z"
		/>
	<path style="fill:#FEDEA1;" d="M196.951,243.654c-10.931,0-20.369-4.002-28.023-11.878c-7.475-7.458-11.332-16.845-11.332-27.75
		c0-10.871,3.721-20.215,11.042-27.767c7.748-7.748,17.229-11.605,28.314-11.605c10.897,0,20.309,3.874,27.947,11.529
		c7.535,7.305,11.418,16.725,11.418,27.853c0,10.871-3.874,20.267-11.511,27.913C217.303,239.669,207.891,243.654,196.951,243.654z"
		/>
</g>
<g>
	<path style="fill:#573A32;" d="M331.855,148.627c-0.563-1.877-2.048-4.497-5.862-6.4c-1.877-0.922-3.738-1.399-5.564-1.399
		c-2.859,0-6.963,1.152-10.163,6.596L183.23,350.978c-2.321,3.396-3.174,6.673-2.534,9.728c0.401,1.903,1.613,4.651,5.163,6.878
		c1.911,1.178,3.9,1.775,5.897,1.775c3.84,0,7.296-2.099,10.479-6.502l128.094-205.005
		C332.205,154.574,332.717,151.477,331.855,148.627z"/>
	<path style="fill:#573A32;" d="M234.362,241.751c10.453-10.223,15.735-22.929,15.735-37.751c0-14.976-5.188-27.776-15.454-38.05
		c-10.214-10.001-22.886-15.104-37.692-15.104c-15.002,0-27.776,5.103-38.05,15.172c-10.027,10.223-15.104,23.023-15.104,37.973
		c0,14.797,5.188,27.503,15.386,37.675c10.24,10.453,22.938,15.778,37.76,15.778C211.578,257.452,224.19,252.127,234.362,241.751z
		 M170.387,204.281c0-7.723,2.449-13.978,7.45-19.123c4.983-5.001,11.238-7.424,19.123-7.424c7.526,0,13.696,2.449,18.901,7.501
		c5.35,5.171,7.953,11.401,7.953,19.046c0,7.279-2.603,13.329-8.021,18.577c-5.376,5.402-11.529,8.004-18.825,8.004
		c-7.663,0-13.901-2.603-19.089-7.979C172.836,217.704,170.387,211.628,170.387,204.281z"/>
	<path style="fill:#573A32;" d="M318.389,252.853c-14.985,0-27.759,5.103-37.973,15.104c-10.266,10.052-15.462,22.75-15.462,37.777
		c0,14.797,5.188,27.503,15.428,37.726c10.411,10.402,23.202,15.701,38.016,15.701c14.822,0,27.529-5.299,37.726-15.701
		c10.24-10.249,15.428-22.929,15.428-37.726c0-15.002-5.197-27.699-15.462-37.777C345.867,257.956,333.178,252.853,318.389,252.853z
		 M337.188,324.601c-5.197,5.35-11.349,7.953-18.799,7.953c-7.45,0-13.602-2.603-18.85-8.004
		c-5.188-5.171-7.714-11.349-7.714-18.825c0-7.526,2.449-13.722,7.424-18.85c5.197-5.197,11.46-7.723,19.14-7.723
		c7.484,0,13.653,2.526,18.901,7.774c5.154,5.001,7.663,11.153,7.663,18.799C344.954,313.201,342.428,319.353,337.188,324.601z"/>
	<path style="fill:#573A32;" d="M506.985,240.787l-22.366-30.259l9.088-36.514c2.714-10.914-2.005-22.323-11.648-28.117
		L449.811,126.5l-5.581-37.214c-1.664-11.119-10.402-19.857-21.521-21.521l-37.214-5.581l-19.396-32.247
		c-4.702-7.825-13.107-12.407-21.931-12.407c-2.048,0-4.13,0.247-6.187,0.759l-36.514,9.088L271.209,5.011
		c-4.514-3.337-9.856-5.009-15.206-5.009s-10.692,1.673-15.215,5.009l-30.259,22.366l-36.514-9.088
		c-2.057-0.512-4.13-0.759-6.187-0.759c-8.832,0-17.229,4.591-21.939,12.407l-19.396,32.247l-37.205,5.581
		c-11.119,1.664-19.849,10.402-21.521,21.521L62.185,126.5l-32.247,19.396c-9.634,5.794-14.362,17.203-11.648,28.117l9.088,36.514
		L5.011,240.787c-6.682,9.045-6.682,21.393,0,30.438l22.366,30.259l-9.088,36.514c-2.714,10.914,2.005,22.323,11.648,28.117
		l32.247,19.396l5.581,37.214c1.664,11.119,10.402,19.857,21.521,21.521l37.205,5.581l19.396,32.247
		c4.702,7.825,13.107,12.407,21.939,12.407c2.048,0,4.122-0.247,6.187-0.759l36.514-9.088l30.259,22.366
		c4.523,3.328,9.865,5.001,15.215,5.001s10.692-1.673,15.215-5.009l30.259-22.366l36.514,9.088c2.057,0.512,4.13,0.759,6.187,0.759
		c8.832,0,17.229-4.591,21.931-12.407l19.396-32.247l37.214-5.581c11.119-1.664,19.857-10.394,21.521-21.521l5.581-37.214
		l32.247-19.396c9.634-5.794,14.362-17.203,11.648-28.117l-9.088-36.514l22.366-30.259
		C513.675,262.18,513.675,249.823,506.985,240.787z M456.868,295.955l11.998,48.213l-42.573,25.609l-7.373,49.135l-49.135,7.364
		l-25.609,42.581l-48.213-11.998l-39.962,29.542l-39.953-29.534l-48.213,11.998l-25.609-42.581l-49.135-7.364l-7.364-49.135
		l-42.573-25.609l11.998-48.213l-29.551-39.962l29.534-39.953l-11.998-48.213l42.573-25.609l7.364-49.135l49.135-7.364
		l25.609-42.581l48.213,11.998l39.97-29.542l39.953,29.534l48.213-11.998l25.609,42.581l49.135,7.364l7.373,49.135l42.573,25.609
		L456.86,216.04l29.542,39.962L456.868,295.955z"/>
	<path style="fill:#573A32;" d="M256.002,76.802c-98.807,0-179.2,80.384-179.2,179.2s80.393,179.2,179.2,179.2
		s179.2-80.384,179.2-179.2S354.81,76.802,256.002,76.802z M256.002,409.602c-84.83,0-153.6-68.77-153.6-153.6
		s68.77-153.6,153.6-153.6s153.6,68.77,153.6,153.6S340.832,409.602,256.002,409.602z"/>
</g>
<g>
</g>
<g>
</g>
<g>
</g>
<g>
</g>
<g>
</g>
<g>
</g>
<g>
</g>
<g>
</g>
<g>
</g>
<g>
</g>
<g>
</g>
<g>
</g>
<g>
</g>
<g>
</g>
<g>
</g>
</svg>
