<?xml version="1.0" encoding="iso-8859-1"?>
<!-- Generator: Adobe Illustrator 19.0.0, SVG Export Plug-In . SVG Version: 6.00 Build 0)  -->
<svg version="1.1" id="Layer_1" xmlns="http://www.w3.org/2000/svg" xmlns:xlink="http://www.w3.org/1999/xlink" x="0px" y="0px"
	 viewBox="0 0 512 512" style="enable-background:new 0 0 512 512;" xml:space="preserve">
<path style="fill:#B8C9D9;" d="M356.174,166.957H155.826c-9.217,0-16.696-7.473-16.696-16.696V16.696
	C139.13,7.473,146.609,0,155.826,0h200.348c9.217,0,16.696,7.473,16.696,16.696v133.565
	C372.87,159.484,365.391,166.957,356.174,166.957z M172.522,133.565h166.957V33.391H172.522V133.565z"/>
<path style="fill:#9EACBA;" d="M356.174,0H256v33.391h83.478v100.174H256v33.391h100.174c9.217,0,16.696-7.473,16.696-16.696V16.696
	C372.87,7.473,365.391,0,356.174,0z"/>
<path style="fill:#F9B54C;" d="M256,166.957c-9.217,0-16.696-7.473-16.696-16.696V83.478c0-9.223,7.479-16.696,16.696-16.696
	s16.696,7.473,16.696,16.696v66.783C272.696,159.484,265.217,166.957,256,166.957z"/>
<path style="fill:#E69E2E;" d="M272.696,150.261V83.478c0-9.223-7.479-16.696-16.696-16.696v100.174
	C265.217,166.957,272.696,159.484,272.696,150.261z"/>
<path style="fill:#FFD15D;" d="M289.391,100.174h-66.783c-9.217,0-16.696-7.473-16.696-16.696s7.479-16.696,16.696-16.696h66.783
	c9.217,0,16.696,7.473,16.696,16.696S298.608,100.174,289.391,100.174z"/>
<path style="fill:#F9B54C;" d="M289.391,66.783H256v33.391h33.391c9.217,0,16.696-7.473,16.696-16.696
	S298.608,66.783,289.391,66.783z"/>
<path style="fill:#576573;" d="M411.652,456.521H100.348l-28-28V217.043c0-46.032,37.446-83.478,83.478-83.478h200.348
	c46.032,0,83.478,37.446,83.478,83.478v211.478L411.652,456.521z"/>
<path style="fill:#485566;" d="M356.174,133.565H256v322.956h155.652l28-28V217.043
	C439.652,171.011,402.206,133.565,356.174,133.565z"/>
<path style="fill:#FFD15D;" d="M155.826,512h200.348c46.032,0,83.478-37.446,83.478-83.478H72.348
	C72.348,474.554,109.794,512,155.826,512z"/>
<path style="fill:#F9B54C;" d="M256,512h100.174c46.032,0,83.478-37.446,83.478-83.478H256V512z"/>
<path style="fill:#D7EBFF;" d="M256,389.565c-39.891,0-72.348-32.456-72.348-72.348c0-14.358,4.206-28.245,12.163-40.152
	l46.305-69.299c6.195-9.272,21.565-9.272,27.76,0l46.305,69.294c7.956,11.913,12.162,25.799,12.162,40.158
	C328.348,357.109,295.891,389.565,256,389.565z"/>
<path style="fill:#BDDEFF;" d="M328.348,317.217c0-14.358-4.206-28.245-12.163-40.158l-46.305-69.294
	c-3.098-4.636-8.489-6.954-13.881-6.954v188.753C295.891,389.565,328.348,357.109,328.348,317.217z"/>
<path style="fill:#B8C9D9;" d="M256,356.174c-21.478,0-38.957-17.478-38.957-38.957c0-7.733,2.261-15.201,6.532-21.603L256,247.092
	l32.424,48.522c4.272,6.397,6.532,13.87,6.532,21.603C294.957,338.696,277.478,356.174,256,356.174z"/>
<path style="fill:#9EACBA;" d="M294.957,317.217c0-7.733-2.261-15.206-6.532-21.603L256,247.092v109.082
	C277.478,356.174,294.957,338.696,294.957,317.217z"/>
<path style="fill:#B8C9D9;" d="M389.565,33.391h-267.13c-9.217,0-16.696-7.473-16.696-16.696S113.218,0,122.435,0h267.13
	c9.217,0,16.696,7.473,16.696,16.696S398.782,33.391,389.565,33.391z"/>
<path style="fill:#9EACBA;" d="M389.565,0H256v33.391h133.565c9.217,0,16.696-7.473,16.696-16.696S398.782,0,389.565,0z"/>
<g>
</g>
<g>
</g>
<g>
</g>
<g>
</g>
<g>
</g>
<g>
</g>
<g>
</g>
<g>
</g>
<g>
</g>
<g>
</g>
<g>
</g>
<g>
</g>
<g>
</g>
<g>
</g>
<g>
</g>
</svg>
