<?xml version="1.0" encoding="iso-8859-1"?>
<!-- Generator: Adobe Illustrator 19.0.0, SVG Export Plug-In . SVG Version: 6.00 Build 0)  -->
<svg version="1.1" id="Layer_1" xmlns="http://www.w3.org/2000/svg" xmlns:xlink="http://www.w3.org/1999/xlink" x="0px" y="0px"
	 viewBox="0 0 495 495" style="enable-background:new 0 0 495 495;" xml:space="preserve">
<g>
	<rect x="2.165" style="fill:#2488FF;" width="160" height="70"/>
	<polygon style="fill:#2488FF;" points="122.165,435 122.165,395 162.165,395 162.165,335 2.165,335 2.165,495 162.165,495 
		162.165,435 	"/>
	<rect x="162.165" style="fill:#005ECE;" width="160" height="70"/>
	<polygon style="fill:#005ECE;" points="162.165,395 202.165,395 202.165,435 162.165,435 162.165,495 322.165,495 322.165,335 
		162.165,335 	"/>
	<rect x="2.165" y="70" style="fill:#00E7F0;" width="160" height="265"/>
	<rect x="162.165" y="70" style="fill:#00D7DF;" width="160" height="265"/>
	<polygon style="fill:#FFDA44;" points="122.165,435 162.165,435 202.165,435 202.165,395 162.165,395 122.165,395 	"/>
	<path style="fill:#2488FF;" d="M435.804,134.614l-28.285,28.284c60.435,60.435,60.435,158.769,0,219.203l28.285,28.284
		c36.777-36.778,57.031-85.747,57.031-137.886S472.582,171.392,435.804,134.614z"/>
	<path style="fill:#2488FF;" d="M386.307,184.112l-28.285,28.284c33.142,33.142,33.142,87.066,0,120.208l28.285,28.284
		C435.044,312.151,435.044,232.849,386.307,184.112z"/>
</g>
<g>
</g>
<g>
</g>
<g>
</g>
<g>
</g>
<g>
</g>
<g>
</g>
<g>
</g>
<g>
</g>
<g>
</g>
<g>
</g>
<g>
</g>
<g>
</g>
<g>
</g>
<g>
</g>
<g>
</g>
</svg>
