<?xml version="1.0" encoding="iso-8859-1"?>
<!-- Generator: Adobe Illustrator 19.0.0, SVG Export Plug-In . SVG Version: 6.00 Build 0)  -->
<svg version="1.1" id="Layer_1" xmlns="http://www.w3.org/2000/svg" xmlns:xlink="http://www.w3.org/1999/xlink" x="0px" y="0px"
	 viewBox="0 0 512 512" style="enable-background:new 0 0 512 512;" xml:space="preserve">
<circle style="fill:#71E2EF;" cx="256" cy="256" r="256"/>
<path style="fill:#38C6D9;" d="M274.72,511.316c126.445-9.14,227.43-110.109,236.592-236.546L336.925,100.383L288.18,312.889
	l-113.678,98.209L274.72,511.316z"/>
<path style="fill:#444242;" d="M183.165,414.599h145.67c6.902,0,12.498-5.596,12.498-12.498V109.899
	c0-6.903-5.596-12.498-12.498-12.498h-145.67c-6.903,0-12.498,5.596-12.498,12.498v292.202
	C170.667,409.004,176.262,414.599,183.165,414.599z"/>
<path style="fill:#272525;" d="M328.835,97.401h-73.409v317.199h73.409c6.902,0,12.498-5.596,12.498-12.498V109.899
	C341.333,102.996,335.738,97.401,328.835,97.401z"/>
<rect x="180.148" y="123.259" style="fill:#FFFFFF;" width="151.704" height="244.795"/>
<g>
	<rect x="255.431" y="123.259" style="fill:#D0D1D3;" width="76.421" height="244.795"/>
	<rect x="180.148" y="312.889" style="fill:#D0D1D3;" width="151.704" height="55.165"/>
</g>
<rect x="255.431" y="312.889" style="fill:#A6A8AA;" width="76.421" height="55.165"/>
<path style="fill:#FEE187;" d="M222.67,170.667h-18.675c-2.698,0-4.886-2.188-4.886-4.886v-18.673c0-2.698,2.188-4.886,4.886-4.886
	h18.675c2.698,0,4.884,2.188,4.884,4.886v18.675C227.556,168.479,225.368,170.667,222.67,170.667z"/>
<path style="fill:#FFC61B;" d="M265.337,170.667h-18.675c-2.698,0-4.884-2.188-4.884-4.886v-18.673c0-2.698,2.188-4.886,4.884-4.886
	h18.675c2.698,0,4.884,2.188,4.884,4.886v18.675C270.222,168.479,268.035,170.667,265.337,170.667z"/>
<path style="fill:#FF314F;" d="M308.003,170.667h-18.675c-2.698,0-4.884-2.188-4.884-4.886v-18.673c0-2.698,2.188-4.886,4.884-4.886
	h18.675c2.698,0,4.884,2.188,4.884,4.886v18.675C312.889,168.479,310.701,170.667,308.003,170.667z"/>
<path style="fill:#EAA22F;" d="M222.67,230.572h-18.675c-2.698,0-4.886-2.188-4.886-4.884v-18.675c0-2.698,2.188-4.886,4.886-4.886
	h18.675c2.698,0,4.884,2.188,4.884,4.886v18.675C227.556,228.385,225.368,230.572,222.67,230.572z"/>
<path style="fill:#E09112;" d="M265.337,230.572h-18.675c-2.698,0-4.884-2.188-4.884-4.884v-18.675c0-2.698,2.188-4.886,4.884-4.886
	h18.675c2.698,0,4.884,2.188,4.884,4.886v18.675C270.222,228.385,268.035,230.572,265.337,230.572z"/>
<path style="fill:#FFEDB5;" d="M308.003,230.572h-18.675c-2.698,0-4.884-2.188-4.884-4.884v-18.675c0-2.698,2.188-4.886,4.884-4.886
	h18.675c2.698,0,4.884,2.188,4.884,4.886v18.675C312.889,228.385,310.701,230.572,308.003,230.572z"/>
<path style="fill:#D0D1D3;" d="M222.67,284.444h-18.675c-2.698,0-4.886-2.188-4.886-4.884v-18.675c0-2.698,2.188-4.884,4.886-4.884
	h18.675c2.698,0,4.884,2.188,4.884,4.884v18.675C227.556,282.257,225.368,284.444,222.67,284.444z"/>
<path style="fill:#FFC61B;" d="M265.337,284.444h-18.675c-2.698,0-4.884-2.188-4.884-4.884v-18.675c0-2.698,2.188-4.884,4.884-4.884
	h18.675c2.698,0,4.884,2.188,4.884,4.884v18.675C270.222,282.257,268.035,284.444,265.337,284.444z"/>
<path style="fill:#FF6262;" d="M308.003,284.444h-18.675c-2.698,0-4.884-2.188-4.884-4.884v-18.675c0-2.698,2.188-4.884,4.884-4.884
	h18.675c2.698,0,4.884,2.188,4.884,4.884v18.675C312.889,282.257,310.701,284.444,308.003,284.444z"/>
<path style="fill:#FF5419;" d="M222.67,354.694h-18.675c-2.698,0-4.886-2.188-4.886-4.884v-18.675c0-2.698,2.188-4.884,4.886-4.884
	h18.675c2.698,0,4.884,2.188,4.884,4.884v18.675C227.556,352.506,225.368,354.694,222.67,354.694z"/>
<path style="fill:#FFAD9E;" d="M265.337,354.694h-18.675c-2.698,0-4.884-2.188-4.884-4.884v-18.675c0-2.698,2.188-4.884,4.884-4.884
	h18.675c2.698,0,4.884,2.188,4.884,4.884v18.675C270.222,352.506,268.035,354.694,265.337,354.694z"/>
<path style="fill:#EAA22F;" d="M265.337,142.222h-9.912v28.444h9.912c2.698,0,4.884-2.188,4.884-4.884v-18.677
	C270.222,144.41,268.035,142.222,265.337,142.222z"/>
<path style="fill:#FF5419;" d="M265.337,202.128h-9.912v28.444h9.912c2.698,0,4.884-2.188,4.884-4.884v-18.675
	C270.222,204.316,268.035,202.128,265.337,202.128z"/>
<path style="fill:#EAA22F;" d="M265.337,256h-9.912v28.444h9.912c2.698,0,4.884-2.188,4.884-4.884v-18.675
	C270.222,258.188,268.035,256,265.337,256z"/>
<g>
	<path style="fill:#FF6262;" d="M265.337,326.249h-9.912v28.444h9.912c2.698,0,4.884-2.188,4.884-4.884v-18.675
		C270.222,328.437,268.035,326.249,265.337,326.249z"/>
	<path style="fill:#FF6262;" d="M308.003,354.694h-18.675c-2.698,0-4.884-2.188-4.884-4.884v-18.675
		c0-2.698,2.188-4.884,4.884-4.884h18.675c2.698,0,4.884,2.188,4.884,4.884v18.675C312.889,352.506,310.701,354.694,308.003,354.694
		z"/>
</g>
<circle style="fill:#808183;" cx="256" cy="387.017" r="9.481"/>
<path style="fill:#59595B;" d="M256,377.535c-0.193,0-0.383,0.017-0.574,0.029v18.904c0.191,0.012,0.381,0.029,0.574,0.029
	c5.237,0,9.481-4.244,9.481-9.482S261.236,377.535,256,377.535z"/>
<g>
</g>
<g>
</g>
<g>
</g>
<g>
</g>
<g>
</g>
<g>
</g>
<g>
</g>
<g>
</g>
<g>
</g>
<g>
</g>
<g>
</g>
<g>
</g>
<g>
</g>
<g>
</g>
<g>
</g>
</svg>
