<?xml version="1.0"?>
<svg xmlns="http://www.w3.org/2000/svg" id="light" enable-background="new 0 0 24 24" height="512px" viewBox="0 0 24 24" width="512px" class=""><g><path d="m19.5 20h-15c-.276 0-.5-.224-.5-.5s.224-.5.5-.5h15c.276 0 .5.224.5.5s-.224.5-.5.5z" data-original="#000000" class="active-path" data-old_color="#000000" fill="#032D67"/><path d="m17.5 24h-11c-1.378 0-2.5-1.122-2.5-2.5v-19c0-1.378 1.122-2.5 2.5-2.5h11c1.378 0 2.5 1.122 2.5 2.5v19c0 1.378-1.122 2.5-2.5 2.5zm-11-23c-.827 0-1.5.673-1.5 1.5v19c0 .827.673 1.5 1.5 1.5h11c.827 0 1.5-.673 1.5-1.5v-19c0-.827-.673-1.5-1.5-1.5z" data-original="#000000" class="active-path" data-old_color="#000000" fill="#032D67"/><path d="m10.5 17c-.059 0-.119-.01-.177-.032-.223-.084-.355-.315-.316-.55l.903-5.418h-2.41c-.188 0-.359-.104-.444-.271-.086-.167-.071-.367.038-.52l5-7c.137-.192.39-.261.605-.168.216.094.338.326.292.557l-.881 4.402h2.39c.182 0 .349.099.438.258.088.159.083.353-.014.507l-5 8c-.093.15-.256.235-.424.235zm-1.028-7h2.028c.147 0 .287.064.381.177.095.112.136.26.112.405l-.587 3.525 3.192-5.107h-2.098c-.15 0-.292-.067-.387-.183s-.133-.268-.104-.415l.543-2.716z" data-original="#000000" class="active-path" data-old_color="#000000" fill="#032D67"/></g> </svg>
